<svg width="25" height="26" viewBox="0 0 25 26" fill="none" xmlns="http://www.w3.org/2000/svg">
<path d="M7.50694 25.5C6.8188 25.5 6.22971 25.2552 5.73968 24.7656C5.24964 24.276 5.00462 23.6875 5.00462 23C5.00462 22.3125 5.24964 21.724 5.73968 21.2344C6.22971 20.7448 6.8188 20.5 7.50694 20.5C8.19507 20.5 8.78416 20.7448 9.27419 21.2344C9.76423 21.724 10.0092 22.3125 10.0092 23C10.0092 23.6875 9.76423 24.276 9.27419 24.7656C8.78416 25.2552 8.19507 25.5 7.50694 25.5ZM20.0185 25.5C19.3304 25.5 18.7413 25.2552 18.2512 24.7656C17.7612 24.276 17.5162 23.6875 17.5162 23C17.5162 22.3125 17.7612 21.724 18.2512 21.2344C18.7413 20.7448 19.3304 20.5 20.0185 20.5C20.7066 20.5 21.2957 20.7448 21.7858 21.2344C22.2758 21.724 22.5208 22.3125 22.5208 23C22.5208 23.6875 22.2758 24.276 21.7858 24.7656C21.2957 25.2552 20.7066 25.5 20.0185 25.5ZM6.44345 5.5L9.44623 11.75H18.2043L21.645 5.5H6.44345ZM5.25486 3H23.7094C24.189 3 24.5539 3.21354 24.8042 3.64062C25.0544 4.06771 25.0648 4.5 24.8354 4.9375L20.3938 12.9375C20.1645 13.3542 19.8569 13.6771 19.4711 13.9062C19.0853 14.1354 18.6631 14.25 18.2043 14.25H8.88321L7.50694 16.75H22.5208V19.25H7.50694C6.56857 19.25 5.85958 18.8385 5.37997 18.0156C4.90036 17.1927 4.87951 16.375 5.31741 15.5625L7.00647 12.5L2.50231 3H0V0.5H4.06626L5.25486 3Z" fill="black"/>
</svg>
