<svg width="25" height="26" viewBox="0 0 25 26" fill="none" xmlns="http://www.w3.org/2000/svg">
<path d="M12.5 13C10.7812 13 9.3099 12.388 8.08594 11.1641C6.86198 9.9401 6.25 8.46875 6.25 6.75C6.25 5.03125 6.86198 3.5599 8.08594 2.33594C9.3099 1.11198 10.7812 0.5 12.5 0.5C14.2188 0.5 15.6901 1.11198 16.9141 2.33594C18.138 3.5599 18.75 5.03125 18.75 6.75C18.75 8.46875 18.138 9.9401 16.9141 11.1641C15.6901 12.388 14.2188 13 12.5 13ZM0 25.5V21.125C0 20.2396 0.227865 19.4258 0.683594 18.6836C1.13932 17.9414 1.74479 17.375 2.5 16.9844C4.11458 16.1771 5.75521 15.5716 7.42188 15.168C9.08854 14.7643 10.7812 14.5625 12.5 14.5625C14.2188 14.5625 15.9115 14.7643 17.5781 15.168C19.2448 15.5716 20.8854 16.1771 22.5 16.9844C23.2552 17.375 23.8607 17.9414 24.3164 18.6836C24.7721 19.4258 25 20.2396 25 21.125V25.5H0ZM3.125 22.375H21.875V21.125C21.875 20.8385 21.8034 20.5781 21.6602 20.3438C21.5169 20.1094 21.3281 19.9271 21.0938 19.7969C19.6875 19.0938 18.2682 18.5664 16.8359 18.2148C15.4036 17.8633 13.9583 17.6875 12.5 17.6875C11.0417 17.6875 9.59635 17.8633 8.16406 18.2148C6.73177 18.5664 5.3125 19.0938 3.90625 19.7969C3.67188 19.9271 3.48307 20.1094 3.33984 20.3438C3.19661 20.5781 3.125 20.8385 3.125 21.125V22.375ZM12.5 9.875C13.3594 9.875 14.0951 9.56901 14.707 8.95703C15.319 8.34505 15.625 7.60938 15.625 6.75C15.625 5.89062 15.319 5.15495 14.707 4.54297C14.0951 3.93099 13.3594 3.625 12.5 3.625C11.6406 3.625 10.9049 3.93099 10.293 4.54297C9.68099 5.15495 9.375 5.89062 9.375 6.75C9.375 7.60938 9.68099 8.34505 10.293 8.95703C10.9049 9.56901 11.6406 9.875 12.5 9.875Z" fill="black"/>
</svg>
